<?xml version="1.0" encoding="UTF-8" standalone="no"?>
<svg
   version="1.1"
   width="137.72501"
   height="137.65741"
   viewBox="0 0 137.72501 137.65741"
   sodipodi:docname="network.svg"
   xmlns:sodipodi="http://sodipodi.sourceforge.net/DTD/sodipodi-0.dtd"
   xmlns="http://www.w3.org/2000/svg"
   xmlns:svg="http://www.w3.org/2000/svg">
  <sodipodi:namedview
     id="namedview886"
     pagecolor="#ffffff">
  </sodipodi:namedview>
  <g
     transform="translate(-84.894293,-41.774951)">
    <path
       style="fill:#fff;stroke-width:0.2"
       d="m 147.35841,179.27286 c -7.56255,-0.72422 -15.72461,-2.9521 -22.87626,-6.24422 l -1.99999,-0.92065 -1.48561,0.89459 c -2.2288,1.34211 -4.21643,1.98972 -6.62443,2.15834 -3.92959,0.27517 -7.35483,-1.00357 -10.41125,-3.88684 -2.07654,-1.9589 -3.48729,-4.41328 -4.025307,-7.00309 -0.442977,-2.13229 -0.189774,-5.75461 0.535797,-7.66509 l 0.5824,-1.53352 -1.811998,-2.37237 C 87.097067,136.79947 82.475613,117.48895 86.093372,97.760091 c 1.789209,-9.757172 5.936131,-19.4222 11.716676,-27.307494 1.029176,-1.403907 2.063146,-2.81997 2.297712,-3.146803 0.39663,-0.552628 0.37535,-0.722102 -0.303892,-2.419923 -2.349524,-5.872886 -0.05449,-12.966304 5.340782,-16.507093 4.52814,-2.971715 10.77584,-2.988134 15.16182,-0.03984 l 1.54238,1.036806 3.25944,-1.481865 c 6.06762,-2.75857 12.98483,-4.731924 20.22983,-5.771202 3.65686,-0.524567 14.06191,-0.439495 17.91319,0.146459 6.85004,1.042202 13.09165,2.837362 18.82594,5.414559 l 2.70273,1.214704 2.02651,-1.093085 c 6.44541,-3.476612 14.22776,-1.462867 18.24539,4.721138 2.08903,3.215467 2.72665,7.812368 1.59013,11.463995 l -0.51681,1.660513 1.77989,2.202028 c 7.67271,9.492487 12.67602,21.452912 14.38689,34.391882 0.43642,3.3006 0.43642,13.40043 0,16.70102 -1.68336,12.73094 -6.34682,24.03076 -13.98134,33.87753 l -1.7262,2.22642 0.58662,1.54478 c 0.72088,1.89835 0.98405,5.53897 0.55106,7.62315 -0.69158,3.32889 -3.21893,6.94591 -6.18193,8.84725 -2.36185,1.5156 -4.14239,1.99413 -7.44587,2.00111 -3.29142,0.007 -4.94756,-0.45554 -7.54585,-2.10728 l -1.35032,-0.8584 -2.95962,1.3373 c -5.84083,2.63915 -13.25667,4.73078 -19.79533,5.58326 -3.10769,0.40516 -11.9434,0.55268 -15.08479,0.25185 z m 12.60372,-9.43048 c 6.12133,-0.66475 12.92186,-2.48747 17.99977,-4.82441 l 2.4542,-1.12947 -0.12375,-1.79706 c -0.26361,-3.82779 1.18893,-7.54234 4.08318,-10.4418 4.01221,-4.01943 9.59804,-5.22484 14.97153,-3.23082 0.27701,0.10279 0.92486,-0.54753 2.06052,-2.06839 2.54843,-3.41284 3.74382,-5.38016 5.87325,-9.66591 7.98312,-16.0671 8.08209,-35.27576 0.26607,-51.64032 -1.78476,-3.736785 -2.88829,-5.605697 -5.27191,-8.928337 -2.90559,-4.050237 -2.40874,-3.678962 -4.17724,-3.121491 -6.49293,2.046715 -12.76055,-0.104385 -16.41297,-5.633074 -1.48682,-2.250601 -2.09033,-4.43597 -2.115,-7.658574 l -0.0215,-2.809888 -2.00864,-0.911041 c -4.82173,-2.186952 -11.66828,-3.991694 -17.57751,-4.633403 -10.1056,-1.097413 -21.70429,0.801873 -30.71893,5.030226 l -2.62637,1.23191 v 1.808191 c 0,2.55848 -0.40919,4.421968 -1.44829,6.595723 -1.6281,3.405917 -4.63908,6.032516 -8.20869,7.160786 -2.18104,0.689374 -5.98962,0.765127 -7.93127,0.15775 l -1.29129,-0.403932 -1.10839,1.391378 c -4.33683,5.444069 -8.356262,13.512856 -10.28742,20.651426 -1.747734,6.46054 -2.465063,14.9194 -1.806109,21.29792 1.208469,11.69763 5.704129,22.74229 12.859029,31.59121 0.5733,0.70905 0.58258,0.71058 1.75091,0.28877 1.66304,-0.60042 5.00051,-0.78858 7.02039,-0.39579 6.62433,1.28818 11.64425,7.7209 11.18859,14.33748 l -0.12376,1.79706 2.41699,1.10721 c 4.99455,2.28798 11.87363,4.17329 17.5762,4.817 3.07511,0.34713 9.67358,0.36249 12.73841,0.0297 z m -29.87081,-26.05624 c -1.16226,-0.60717 -1.57856,-1.02348 -2.18573,-2.18573 l -0.75003,-1.43571 0.002,-18.08445 c 10e-4,-11.91826 0.099,-18.43539 0.2873,-19.11367 0.46575,-1.67724 1.95629,-3.09395 3.79227,-3.604397 l 1.57561,-0.438089 0.005,-5.679978 c 0.006,-6.79496 0.28381,-8.422554 2.05193,-12.004346 1.02662,-2.079675 1.66802,-2.960845 3.45859,-4.751413 1.81618,-1.816185 2.63986,-2.411309 4.7391,-3.424116 3.36809,-1.624995 5.66597,-2.066433 10.75666,-2.066433 5.09068,0 7.38856,0.441438 10.75666,2.066433 2.09924,1.012807 2.92292,1.607931 4.7391,3.424116 1.79057,1.790568 2.43198,2.671738 3.45859,4.751413 1.76812,3.581792 2.04633,5.209386 2.05193,12.004346 l 0.005,5.679978 1.57573,0.438089 c 1.83597,0.510447 3.32652,1.927157 3.79226,3.604397 0.18835,0.67828 0.28631,7.19541 0.2873,19.11367 l 0.002,18.08445 -0.75002,1.43571 c -0.60717,1.16225 -1.02348,1.57856 -2.18573,2.18573 l -1.43582,0.75002 h -22.29629 -22.2963 z m 26.15634,-12.32229 c 0.98305,-0.50822 2.06626,-1.73385 2.54474,-2.87928 0.32212,-0.77114 0.41834,-2.04704 0.41834,-5.54709 0,-4.23927 -0.0422,-4.6256 -0.627,-5.73279 -0.41179,-0.77972 -1.07484,-1.46456 -1.93181,-1.99531 -2.6527,-1.64289 -6.15372,-0.72241 -7.58904,1.99531 -0.58681,1.11109 -0.627,1.4872 -0.627,5.86747 0,3.31566 0.10581,4.93302 0.36288,5.54709 0.4586,1.09544 2.35297,2.82182 3.33419,3.0385 0.41115,0.0908 0.86878,0.20825 1.01693,0.26101 0.45121,0.16069 2.38293,-0.18534 3.09777,-0.55491 z m 8.03441,-38.040883 c -0.0862,-5.138831 -0.14347,-5.698038 -0.70986,-6.936312 -0.80684,-1.763976 -2.49065,-3.455147 -4.20016,-4.21853 -1.23428,-0.551166 -1.79663,-0.614176 -5.54873,-0.621738 -3.79552,-0.0077 -4.29775,0.04788 -5.52212,0.610559 -1.76092,0.809265 -3.45201,2.490979 -4.22653,4.203092 -0.57315,1.266983 -0.62809,1.806859 -0.70858,6.962929 l -0.0873,5.589453 h 10.54852 10.54853 z"
       class="svg" />
  </g>
</svg>
