<?xml version="1.0" encoding="utf-8"?>
<!-- Generator: Adobe Illustrator 21.0.0, SVG Export Plug-In . SVG Version: 6.00 Build 0)  -->
<svg version="1.1" id="Layer_1" xmlns="http://www.w3.org/2000/svg" xmlns:xlink="http://www.w3.org/1999/xlink" x="0px" y="0px"
	 viewBox="0 0 512 512" style="enable-background:new 0 0 512 512;" xml:space="preserve">
<g>
	<path d="M258.6,359c0,2.8,2.2,5.1,4.8,5.1h118.4c2.6,0,4.8-2.3,4.8-5.1v-30.7c0-2.8-2.2-5.1-4.8-5.1H263.4c-2.6,0-4.8,2.3-4.8,5.1
		V359z M133.8,362.9l122.9-103c2.4-2,2.4-5.8,0-7.9l-122.9-103c-2.1-1.8-5.4-1.6-7.2,0.6c-0.8,0.9-1.2,2.1-1.2,3.3v40.1
		c0,1.5,0.6,2.9,1.9,3.9l70.3,59l-70.3,59c-1.2,1-1.8,2.4-1.9,3.9V359C125.4,363.4,130.5,365.8,133.8,362.9z M491.5,0h-471
		C9.2,0,0,9.2,0,20.5v471C0,502.8,9.2,512,20.5,512h471c11.3,0,20.5-9.2,20.5-20.5v-471C512,9.2,502.8,0,491.5,0z M465.9,465.9H46.1
		V46.1h419.8V465.9z"
		  style="fill:#ffffff"
	/>
</g>
</svg>
